<svg width="48" height="48" viewBox="0 0 48 48" fill="none" xmlns="http://www.w3.org/2000/svg">
<g clip-path="url(#clip0)">
<path d="M24.0005 0C10.746 0 0.000976562 10.7454 0.000976562 23.9994C0.000976562 37.2534 10.746 48 24.0003 48C37.2547 48 48.0005 37.2538 48.0005 23.9994C48.0005 10.7449 37.2548 0 24.0005 0ZM6.51798 33.0396C6.51798 25.5423 13.1023 25.5438 14.5635 23.5835L14.7307 22.6896C12.6779 21.6488 11.2287 19.1411 11.2287 16.2073C11.2287 12.3426 13.7427 9.20918 16.843 9.20918C19.2843 9.20918 21.3558 11.1554 22.129 13.8681C19.0233 14.855 16.726 18.2224 16.726 22.2253C16.726 24.9811 17.8125 27.5149 19.596 29.1247C19.3096 29.2716 18.991 29.4213 18.7171 29.5496C17.2789 30.2244 15.2852 31.1623 13.847 33.0396H6.51798ZM24.0735 39.0571V39.0567H23.9269H13.6755C13.6755 31.5597 20.2598 31.5618 21.721 29.6015L21.8882 28.7076C19.8353 27.6667 18.3862 25.159 18.3862 22.2253C18.3862 18.3606 20.9002 15.2271 24.0005 15.2271C27.1008 15.2271 29.6148 18.3606 29.6148 22.2253C29.6148 25.1338 28.1914 27.6266 26.166 28.6831L26.3563 29.6994C27.9594 31.5647 34.3247 31.6863 34.3247 39.0571H24.0735ZM34.1534 33.0399V33.0396C32.7146 31.1626 30.721 30.2248 29.2828 29.5501C28.9997 29.4173 28.686 29.27 28.4055 29.126C30.1874 27.5141 31.2751 24.9749 31.2751 22.2253C31.2751 18.2228 28.9786 14.8561 25.8738 13.8689C26.6464 11.1558 28.718 9.2095 31.1597 9.2095C34.2604 9.2095 36.774 12.343 36.774 16.2076C36.774 19.1161 35.3507 21.6086 33.3252 22.6654L33.5156 23.6818C35.1187 25.5467 41.484 25.6682 41.484 33.0399H34.1534Z" fill="black"/>
</g>
<defs>
<clipPath id="clip0">
<rect width="48" height="48" fill="white"/>
</clipPath>
</defs>
</svg>
