<svg width="48" height="48" viewBox="0 0 48 48" fill="none" xmlns="http://www.w3.org/2000/svg">
<g clip-path="url(#clip0)">
<path d="M24.0701 21.5556C26.204 21.5556 27.9339 19.8257 27.9339 17.6918C27.9339 15.5578 26.204 13.8279 24.0701 13.8279C21.9361 13.8279 20.2062 15.5578 20.2062 17.6918C20.2062 19.8257 21.9361 21.5556 24.0701 21.5556Z" fill="black"/>
<path d="M24.0004 0C10.746 0 0.000976562 10.7454 0.000976562 23.9998C0.000976562 37.2538 10.746 48 24.0004 48C37.2548 48 48.0007 37.2538 48.0007 23.9998C48.0007 10.7454 37.2548 0 24.0004 0ZM23.9507 10.9886C23.9676 10.9886 23.9843 10.9878 24.0009 10.987C24.0175 10.9878 24.034 10.9886 24.0511 10.9886C28.095 11.0524 31.3846 14.3947 31.3846 18.4395C31.3846 23.3849 26.1008 28.3924 24.0009 30.1867C23.8606 30.0667 23.7051 29.9315 23.5386 29.7833C23.5358 29.7808 23.5332 29.7787 23.5308 29.7763C21.2069 27.7113 16.6173 23.049 16.6173 18.4395C16.6171 14.3947 19.9071 11.0526 23.9507 10.9886ZM24.1051 37.1604C19.6789 37.1604 15.1979 35.8906 15.1979 33.4647C15.1979 31.7621 17.4044 30.6299 20.249 30.1054C20.7993 30.6585 21.3201 31.1462 21.777 31.5533C18.6784 31.8994 16.8579 32.8803 16.8579 33.4642C16.8579 34.1816 19.6092 35.5 24.1051 35.5C28.6009 35.5 31.3526 34.1816 31.3526 33.4642C31.3526 32.8683 29.4553 31.8627 26.2443 31.5358C26.7052 31.1241 27.2302 30.632 27.7846 30.0731C30.7147 30.5832 33.0125 31.7267 33.0125 33.4647C33.0125 35.8906 28.5315 37.1604 24.1051 37.1604Z" fill="black"/>
</g>
<defs>
<clipPath id="clip0">
<rect width="48" height="48" fill="white"/>
</clipPath>
</defs>
</svg>
